<?xml version="1.0" encoding="utf-8"?>
<!-- Generator: Adobe Illustrator 22.1.0, SVG Export Plug-In . SVG Version: 6.00 Build 0)  -->
<svg version="1.1" xmlns="http://www.w3.org/2000/svg" xmlns:xlink="http://www.w3.org/1999/xlink" x="0px" y="0px"
	 viewBox="0 0 96.3 96.3" style="enable-background:new 0 0 96.3 96.3;" xml:space="preserve">
<style type="text/css">
	.st0{display:none;}
	.st1{display:inline;}
	.st2{fill:url(#SVGID_1_);}
	.st3{fill:#1D1DFF;stroke:#1D1DFF;stroke-width:2;stroke-miterlimit:10;}
	.st4{fill:#FFFFFF;}
</style>
<g id="Layer_2" class="st0">
	<rect class="st1" width="96.3" height="96.3"/>
</g>
<g id="Design">
	<linearGradient id="SVGID_1_" gradientUnits="userSpaceOnUse" x1="78.0551" y1="22.414" x2="16.8791" y2="83.59">
		<stop  offset="0" style="stop-color:#FFFFFF"/>
		<stop  offset="0.3509" style="stop-color:#FFFFFF"/>
		<stop  offset="0.4077" style="stop-color:#FFFFFF"/>
		<stop  offset="1" style="stop-color:#FFFFFF;stop-opacity:0"/>
	</linearGradient>
	<polygon class="st2" points="26.7,93.4 27.7,85.6 21,71.3 10.3,51 8.3,31.8 14.6,17.4 38.5,2.5 69.4,13.8 77.4,44.7 88.4,53.4 
		81,63.5 83.4,68.9 78.2,79.2 80.8,88.2 67.6,92.8 53,89.9 53,89.9 30.4,96.3 	"/>
	<g id="XMLID_1302_">
		<g id="XMLID_1366_">
			<path id="XMLID_1367_" class="st3" d="M53,89.9c1.7,1,3.7,1.4,5.7,1.7s4,0.4,6,0.4c1,0,2,0,3-0.1s2-0.1,3-0.4
				c1-0.1,2-0.4,2.8-0.6c1-0.3,1.8-0.6,2.8-0.9c0.9-0.3,1.7-0.9,2.3-1.6c0.6-0.7,1-1.6,1.1-2.4c0.1-0.9,0.1-1.8-0.1-2.8
				c-0.1-1-0.6-1.8-1-2.7c-0.4-1-0.7-2.1-0.6-3.1c0.1-0.6,0.3-1.1,0.6-1.6c0.1-0.3,0.4-0.4,0.6-0.7l0.6-0.4c0.7-0.6,1-1.4,1-2.3
				c0-0.6-0.1-0.9-0.3-1.3c-0.1-0.3-0.6-0.6-0.7-0.7L78.5,70l1.1-0.6c0.9-0.4,1.8-1.1,2.4-1.7c0.3-0.3,0.4-0.7,0.4-1
				c0-0.4-0.1-0.9-0.4-1.3c-0.4-1-1-1.8-1.6-2.8c-0.1-0.6-0.4-1.3-0.1-2c0.4-0.7,0.9-1,1.3-1.4c1.8-1.3,3.7-2.4,4.3-4.1
				c0.3-0.9,0.1-1.8-0.4-2.6C85,51.9,84,51,83.3,50.3c-1.6-1.4-3.1-2.8-4.8-4.4l-2.1-2.4c-0.9-0.7-1.6-1.6-2.3-2.7
				c-0.3-0.6-0.6-1.1-0.6-1.8s0-1.3,0.1-1.8C73.8,36,74,35,74,34c0.1-2.1-0.1-4.3-0.6-6.2c-0.9-4.1-2.7-8-5.4-11.1
				c-2.8-3.1-6.2-5.7-9.9-7.5c-7.5-3.7-16.5-4.7-24.6-2.6c-4.1,1.1-8,3-11.4,5.5c-1.7,1.3-3.3,2.7-4.7,4.3c-0.7,0.9-1.4,1.6-2.1,2.4
				l-1,1.3l-0.9,1.3c-0.4,0.8-1,1.8-1.4,2.6c-0.4,1-1,1.8-1.3,3c-0.9,2-1.3,4.1-1.6,6.1c-0.6,4.3-0.4,8.5,0.6,12.8
				c0.9,4.3,2.3,8.2,4.1,12.2s4,7.7,6.2,11.2c2.3,3.7,4.4,7.5,6.1,11.5c0.4,1,0.9,2,1.1,3c0.3,1,0.6,2.1,0.6,3.1
				c-0.1,2.1-0.1,4.3,0,6.5c-0.1-2.1-0.1-4.3-0.1-6.5c0-1.1-0.3-2.1-0.6-3.1c-0.3-1-0.7-2-1.1-3c-1.8-4-4-7.7-6.2-11.4
				c-4.8-7-9.1-14.8-10.9-23.5c-1-4.3-1.3-8.7-0.7-13.1c0.3-2.1,0.7-4.4,1.6-6.5c0.3-1.1,0.9-2.1,1.3-3.1c0.6-1,1-2,1.6-3l0.9-1.4
				l1-1.4c0.7-1,1.4-1.7,2.1-2.6c1.6-1.7,3.1-3.3,4.8-4.7c3.6-2.8,7.5-5,11.9-6.2s8.9-1.7,13.5-1.3c4.1,0.9,8.5,2.1,12.6,4.1
				c2,1,4,2.1,5.8,3.6l1.4,1l1.3,1.1c0.7,0.7,1.7,1.6,2.4,2.4c3,3.6,5,8,5.8,12.4c0.4,2.3,0.6,4.5,0.4,6.8c0,1.1-0.3,2.4-0.4,3.4
				s-0.1,1.6,0.1,2.1c0.7,1.4,2.6,2.8,4.1,4.3c1.6,1.4,3.3,3,4.8,4.4l1.1,1.1c0.3,0.3,0.9,0.9,1.3,1.4c0.7,1.1,1,2.8,0.6,4.3
				c-0.4,1.4-1.3,2.4-2.3,3.3c-0.3,0.3-0.4,0.3-0.7,0.6l-0.7,0.4L83,60.5c-0.4,0.3-0.7,0.6-0.7,0.6s0,0,0,0.1s0.1,0.3,0.1,0.6
				c0.3,0.9,0.9,1.8,1.4,2.8c0.3,0.6,0.6,1.1,0.6,2c0,0.4-0.1,1-0.3,1.3c-0.1,0.4-0.4,0.7-0.7,1c-1,0.9-1.8,1.4-3,2l-0.1-2
				c1.7,0.6,2.3,2.3,2.3,3.4c0,0.7,0,1.3-0.3,2c-0.3,0.6-0.7,1.1-1.1,1.6l-0.9,0.3c-0.1,0.1-0.1,0.1-0.3,0.4c-0.1,0.3-0.3,0.7-0.4,1
				c-0.1,0.7,0,1.6,0.4,2.4c0.4,0.9,0.9,2,1,3s0.3,2.1,0,3.3c-0.3,1.1-0.7,2.1-1.6,3s-1.7,1.4-2.8,1.7c-1,0.3-2,0.6-3,0.9
				s-2,0.4-3,0.6c-1,0.1-2,0.1-3,0.3c-1,0-2,0-3,0c-2-0.1-4-0.3-6-0.7C56.7,91.5,54.7,90.9,53,89.9z"/>
			<path id="XMLID_1368_" class="st3" d="M37.5,91.2l-1.4-21.7v0.4C36,69.6,36,69.3,36,69.2c0-0.3,0-0.4,0-0.7
				c0-0.4,0.1-0.9,0.3-1.3c0.4-0.9,1-1.4,1.6-1.8c0.3-0.1,0.7-0.4,0.9-0.4l0.7-0.4l1.6-0.7l0,0l-0.9,1.3V52.9c0-0.9,0.6-1.4,1.4-1.4
				h3.7c0.9,0,1.4,0.6,1.4,1.4v11.6l0,0l-0.4-1c-0.1-0.1,0,0,0,0l0.1,0.1l0.3,0.3l0.7,0.4c0.4,0.3,0.9,0.6,1.6,1
				c0.6,0.4,1.3,1.4,1.3,2.1c0.1,0.7,0.1,1.3,0.1,2C50.2,71.8,50,74,50,76.3l-0.7,13.6l-0.7-13.6c-0.1-2.3-0.3-4.5-0.4-6.8
				c0-0.6-0.1-1.1-0.3-1.4c0.1-0.4,0.1-0.4-0.1-0.6s-0.9-0.4-1.4-0.7l-0.9-0.4l-0.4-0.3L44.8,66c-0.1-0.1-0.1,0-0.3-0.3
				c-0.3-0.3-0.4-0.6-0.4-1v-0.1l0,0V52.9l1.4,1.4h-3.7l1.4-1.4v12.2l0,0c0,0.6-0.3,1-0.9,1.3l0,0L41,67.2l-0.7,0.3
				c-0.1,0-0.3,0.1-0.3,0.1c-0.1,0-0.1,0.1-0.3,0.1c-0.3,0.1-0.6,0.4-0.7,0.6c0,0.1-0.1,0.3-0.1,0.3v0.1v0.1v0.4L37.5,91.2z"/>
			<path id="XMLID_1369_" class="st3" d="M38.5,65.2L24.9,39.8c-0.4-0.7-0.1-1.6,0.6-2s1.6-0.1,2,0.6v0.1L38.5,65.2z"/>
			<path id="XMLID_1370_" class="st3" d="M48.3,64.7L58,38.2c0.3-0.7,1.1-1.1,1.8-0.9c0.7,0.3,1.1,1.1,0.9,1.8v0.1L48.3,64.7z"/>
			<path id="XMLID_1371_" class="st3" d="M27.2,38.5c0,0,0.3-0.3,1-0.6s1.8,0,2.8,1c0.4,0.4,1,1.1,1.3,1.8c0.1,0.4,0.4,0.7,0.4,1.3
				c0,0.3,0.1,0.4,0,0.7s-0.4,0.6-0.9,0.4c-0.6,0-1-0.4-1.4-0.9c-0.3-0.4-0.6-1-0.7-1.6c-0.1-1.3,0.6-2.3,1.4-3.1
				c0.4-0.4,1-0.9,1.6-1c0.6-0.3,1.4-0.3,2.1,0.1c0.7,0.4,1.1,1,1.4,1.6c0.3,0.7,0.4,1.3,0.6,2c0,0.3,0.1,0.7,0.1,1.1
				c0,0.4,0,0.9-0.4,1.3c-0.1,0.3-0.6,0.4-1,0.3c-0.3,0-0.6-0.1-0.7-0.3c-0.4-0.3-0.6-0.7-0.7-1.1c-0.3-1.7,0.6-3.1,1.7-4.3
				c0.6-0.6,1.3-1,2.3-1.1s2,0.6,2.4,1.3c0.6,0.7,0.7,1.4,1,2.3c0.1,0.4,0.1,0.7,0.3,1.1c0,0.4,0.1,0.9-0.1,1.4
				c-0.1,0.1-0.3,0.4-0.6,0.6c-0.3,0.1-0.6,0-0.7,0c-0.3-0.1-0.6-0.3-0.7-0.6c-0.3-0.4-0.6-0.7-0.6-1.1c-0.3-0.9-0.3-1.8,0.1-2.7
				c0.3-0.9,1.1-1.6,1.7-2c0.7-0.4,1.6-0.9,2.6-0.7c0.6,0.1,1,0.4,1.4,0.7c0.3,0.4,0.6,0.7,0.7,1.1c0.3,0.9,0.6,1.6,0.6,2.3
				c0,0.4,0.1,0.7,0.1,1.3c0,0.3-0.1,0.6-0.3,0.9c-0.1,0.3-0.6,0.6-1,0.6c-0.9,0-1.3-0.6-1.6-1s-0.3-1-0.3-1.4
				c0.1-1.7,1.1-3.3,2.7-4.1c0.7-0.4,1.7-0.6,2.7-0.1c1,0.4,1.3,1.4,1.4,2.3c0.1,0.9,0.1,1.6,0,2.3c0,0.4-0.1,0.7-0.4,1.1
				c-0.1,0.1-0.3,0.4-0.4,0.6c-0.1,0.1-0.6,0.4-1,0.3c-0.7-0.3-0.9-0.9-1-1.3c-0.1-0.4-0.1-0.9,0-1.1c0.1-0.9,0.4-1.4,0.9-2.1
				c0.4-0.6,0.9-1.1,1.6-1.4c0.6-0.4,1.4-0.6,2.1-0.4c0.7,0.1,1.3,0.7,1.7,1.1c0.4,0.6,0.6,1.1,0.9,1.7c0.1,0.6,0.4,1.1,0.4,1.7
				c0,0.6,0.1,1.3-0.6,1.8c-0.3,0.3-0.9,0.1-1.1,0s-0.4-0.4-0.6-0.7c-0.1-0.6-0.1-1.1,0-1.6c0.1-1,0.6-1.8,1.4-2.3
				c0.7-0.4,1.6-0.4,2.3-0.1c1.3,0.4,2.1,1,2.8,1.3c0.3,0.1,0.6,0.3,0.7,0.4c0.3,0.1,0,0.1,0,0.1s0.1,0.1,0,0s-0.4-0.1-0.7-0.3
				c-0.7-0.3-1.6-0.9-2.8-1.1c-0.6-0.1-1.4-0.1-2,0.3c-0.6,0.4-1,1.3-1,2c0,0.4-0.1,0.9,0.1,1.3c0.1,0.4,0.6,0.6,0.7,0.4
				c0.1-0.1,0.3-0.7,0.1-1.1c0-0.4-0.3-1-0.4-1.4c-0.4-1-1-2-2-2.3c-1-0.1-2,0.6-2.6,1.6c-0.3,0.4-0.6,1-0.6,1.6c0,0.3,0,0.6,0,0.9
				s0.3,0.4,0.1,0.3c-0.1,0,0,0,0.1-0.3s0.1-0.6,0.3-0.9c0.1-0.6,0-1.3,0-1.8c-0.1-0.6-0.4-1.1-0.7-1.3c-0.4-0.1-1-0.1-1.6,0.1
				c-1.1,0.6-1.8,1.8-2,3c0,0.3,0,0.6,0.1,0.7s0.3,0.3,0.3,0.3c-0.1,0,0,0.1,0-0.1c0-0.1-0.1-0.6-0.1-1c-0.1-0.7-0.3-1.4-0.6-2
				s-0.6-1-1-1.1s-1.1,0.1-1.7,0.6c-0.6,0.4-1,0.7-1.3,1.3s-0.3,1.1,0,1.7c0.1,0.3,0.3,0.6,0.4,0.7c0.1,0.1,0.1,0.1,0.1,0.1
				s-0.1,0-0.3,0c-0.1,0-0.1,0.1-0.1,0.1s0-0.4,0-0.7s-0.1-0.7-0.3-1c-0.1-0.7-0.4-1.4-0.7-1.8s-0.7-0.7-1.3-0.7s-1,0.3-1.6,0.7
				c-0.9,0.9-1.6,2.1-1.4,3.1c0,0.3,0.1,0.4,0.3,0.6l0.1,0.1l0,0c0,0,0.1-0.3,0.1-0.6s0-0.6,0-0.9c-0.3-1.1-0.6-2.4-1.4-3
				c-0.9-0.4-2,0-2.7,0.7s-1.4,1.6-1.3,2.6c0.1,0.9,0.7,1.7,1.4,1.8c0.3,0,0.4-0.3,0.3-0.7c0-0.4-0.1-0.7-0.4-1.1
				c-0.3-0.7-0.7-1.3-1.1-1.8c-0.9-1-2-1.3-2.7-1C27.5,38.2,27.2,38.5,27.2,38.5z"/>
		</g>
	</g>
	<polygon class="st4" points="78.1,68.7 79.2,68.4 80.4,67.7 79.3,66 	"/>
	<path class="st4" d="M78.5,73.3l1.3-0.7c0,0,0-1.2-0.7-1.2L78.5,73.3z"/>
</g>
</svg>
