<?xml version="1.0" encoding="utf-8"?>
<!-- Generator: Adobe Illustrator 22.1.0, SVG Export Plug-In . SVG Version: 6.00 Build 0)  -->
<svg version="1.1" id="Design" xmlns="http://www.w3.org/2000/svg" xmlns:xlink="http://www.w3.org/1999/xlink" x="0px" y="0px"
	 viewBox="0 0 284.2 84.8" style="enable-background:new 0 0 284.2 84.8;" xml:space="preserve">
<style type="text/css">
	.st0{fill:url(#XMLID_2_);}
	.st1{fill:url(#XMLID_3_);}
	.st2{fill:url(#XMLID_4_);}
	.st3{fill:url(#XMLID_5_);}
	.st4{fill:url(#XMLID_6_);}
	.st5{fill:url(#XMLID_7_);}
	.st6{fill:url(#XMLID_8_);}
	.st7{fill:url(#XMLID_9_);}
	.st8{fill:url(#XMLID_10_);}
	.st9{fill:url(#XMLID_11_);}
	.st10{fill:url(#XMLID_12_);}
	.st11{fill:#0763D3;}
	.st12{fill:#0000C6;}
</style>
<g id="XMLID_1302_">
	<g id="XMLID_1366_">

			<radialGradient id="XMLID_2_" cx="45.8848" cy="4.2991" r="158.0448" gradientTransform="matrix(1 0 0 -1 0 86.225)" gradientUnits="userSpaceOnUse">
			<stop  offset="0.2182" style="stop-color:#0000B3"/>
			<stop  offset="0.287" style="stop-color:#0018BC"/>
			<stop  offset="0.4327" style="stop-color:#0056D3"/>
			<stop  offset="0.6417" style="stop-color:#00B8F8"/>
			<stop  offset="0.6829" style="stop-color:#00CCFF"/>
			<stop  offset="0.7095" style="stop-color:#26D4FF"/>
			<stop  offset="0.7536" style="stop-color:#5FDFFF"/>
			<stop  offset="0.798" style="stop-color:#90E9FF"/>
			<stop  offset="0.8415" style="stop-color:#B8F1FF"/>
			<stop  offset="0.884" style="stop-color:#D7F7FF"/>
			<stop  offset="0.9252" style="stop-color:#EDFBFF"/>
			<stop  offset="0.9646" style="stop-color:#FAFEFF"/>
			<stop  offset="1" style="stop-color:#FFFFFF"/>
		</radialGradient>
		<path id="XMLID_1367_" class="st0" d="M31.8,61.3c1.2,0.7,2.6,1,4,1.2s2.8,0.3,4.2,0.3c0.7,0,1.4,0,2.1-0.1
			c0.7-0.1,1.4-0.1,2.1-0.3c0.7-0.1,1.4-0.3,2-0.4c0.7-0.2,1.3-0.4,2-0.6c0.6-0.2,1.2-0.6,1.6-1.1c0.4-0.5,0.7-1.1,0.8-1.7
			c0.1-0.6,0.1-1.3-0.1-2c-0.1-0.7-0.4-1.3-0.7-1.9c-0.3-0.7-0.5-1.5-0.4-2.2c0.1-0.4,0.2-0.8,0.4-1.1c0.1-0.2,0.3-0.3,0.4-0.5
			l0.4-0.3c0.5-0.4,0.7-1,0.7-1.6c0-0.4-0.1-0.6-0.2-0.9c-0.1-0.2-0.4-0.4-0.5-0.5l-0.9-0.3l0.8-0.4c0.6-0.3,1.3-0.8,1.7-1.2
			c0.2-0.2,0.3-0.5,0.3-0.7c0-0.3-0.1-0.6-0.3-0.9c-0.3-0.7-0.7-1.3-1.1-2c-0.1-0.4-0.3-0.9-0.1-1.4c0.3-0.5,0.6-0.7,0.9-1
			c1.3-0.9,2.6-1.7,3-2.9c0.2-0.6,0.1-1.3-0.3-1.8c-0.3-0.5-1-1.1-1.5-1.6c-1.1-1-2.2-2-3.4-3.1L48,28.8c-0.6-0.5-1.1-1.1-1.6-1.9
			c-0.2-0.4-0.4-0.8-0.4-1.3s0-0.9,0.1-1.3c0.1-0.8,0.3-1.5,0.3-2.2c0.1-1.5-0.1-3-0.4-4.4c-0.6-2.9-1.9-5.6-3.8-7.8
			c-2-2.2-4.4-4-7-5.3c-5.1-2.7-11.4-3.5-17.1-1.9c-2.9,0.8-5.6,2.1-8,3.9C8.9,7.4,7.8,8.5,6.7,9.5c-0.5,0.6-1,1.1-1.5,1.7l-0.6,0.9
			l-0.6,1c-0.4,0.6-0.8,1.3-1.1,1.9c-0.3,0.7-0.7,1.3-0.9,2.1c-0.6,1.4-0.9,2.9-1.1,4.3c-0.4,3-0.3,6,0.4,9c0.6,3,1.6,5.8,2.9,8.6
			c1.3,2.8,2.8,5.4,4.4,7.9c1.6,2.6,3.1,5.3,4.3,8.1c0.3,0.7,0.6,1.4,0.8,2.1c0.2,0.7,0.4,1.5,0.4,2.2c-0.1,1.5-0.1,3,0,4.6
			c-0.1-1.5-0.1-3-0.1-4.6c0-0.8-0.2-1.5-0.4-2.2s-0.5-1.4-0.8-2.1c-1.3-2.8-2.8-5.4-4.4-8C5,42,2,36.5,0.7,30.4
			c-0.7-3-0.9-6.1-0.5-9.2c0.2-1.5,0.5-3.1,1.1-4.6c0.2-0.8,0.6-1.5,0.9-2.2c0.4-0.7,0.7-1.4,1.1-2.1l0.6-1l0.7-1
			c0.2-0.4,0.8-1,1.2-1.6C6.9,7.5,8,6.4,9.2,5.4c2.5-2,5.3-3.5,8.4-4.4s6.3-1.2,9.5-0.9s6.3,1.2,9.2,2.6c1.4,0.7,2.8,1.5,4.1,2.5
			l1,0.7l0.9,0.8c0.5,0.5,1.2,1.1,1.7,1.7c2.1,2.5,3.5,5.6,4.1,8.7c0.3,1.6,0.4,3.2,0.3,4.8c0,0.8-0.2,1.7-0.3,2.4
			C48,25,48,25.4,48.2,25.8c0.5,1,1.8,2,2.9,3c1.1,1,2.3,2.1,3.4,3.1l0.8,0.8c0.2,0.2,0.6,0.6,0.9,1c0.5,0.8,0.7,2,0.4,3
			S55.7,38.4,55,39c-0.2,0.2-0.3,0.2-0.5,0.4l-0.7,0.7l-0.9,0.6c-0.3,0.2-0.5,0.4-0.5,0.4s0,0,0,0.1s0.1,0.2,0.1,0.4
			c0.2,0.6,0.6,1.3,1,2c0.2,0.4,0.4,0.8,0.4,1.4c0,0.3-0.1,0.7-0.2,0.9c-0.1,0.3-0.3,0.5-0.5,0.7c-0.7,0.6-1.3,1-2.1,1.4L51,46.6
			c1.2,0.4,1.6,1.6,1.6,2.4c0,0.5,0,0.9-0.2,1.4c-0.2,0.4-0.5,0.8-0.8,1.1l-0.4,0.4C51.1,52,51.1,52,51,52.2
			c-0.1,0.2-0.2,0.5-0.3,0.7c-0.1,0.5,0,1.1,0.3,1.7c0.3,0.6,0.6,1.4,0.7,2.1c0.1,0.7,0.2,1.5,0,2.3s-0.5,1.5-1.1,2.1s-1.2,1-2,1.2
			c-0.7,0.2-1.4,0.4-2.1,0.6c-0.7,0.2-1.4,0.3-2.1,0.4c-0.7,0.1-1.4,0.1-2.1,0.2c-0.7,0-1.4,0-2.1,0c-1.4-0.1-2.8-0.2-4.2-0.5
			C34.4,62.4,33,62,31.8,61.3z"/>

			<radialGradient id="XMLID_3_" cx="45.8849" cy="4.2992" r="158.0449" gradientTransform="matrix(1 0 0 -1 0 86.225)" gradientUnits="userSpaceOnUse">
			<stop  offset="0.2182" style="stop-color:#0000B3"/>
			<stop  offset="0.287" style="stop-color:#0018BC"/>
			<stop  offset="0.4327" style="stop-color:#0056D3"/>
			<stop  offset="0.6417" style="stop-color:#00B8F8"/>
			<stop  offset="0.6829" style="stop-color:#00CCFF"/>
			<stop  offset="0.7095" style="stop-color:#26D4FF"/>
			<stop  offset="0.7536" style="stop-color:#5FDFFF"/>
			<stop  offset="0.798" style="stop-color:#90E9FF"/>
			<stop  offset="0.8415" style="stop-color:#B8F1FF"/>
			<stop  offset="0.884" style="stop-color:#D7F7FF"/>
			<stop  offset="0.9252" style="stop-color:#EDFBFF"/>
			<stop  offset="0.9646" style="stop-color:#FAFEFF"/>
			<stop  offset="1" style="stop-color:#FFFFFF"/>
		</radialGradient>
		<path id="XMLID_1368_" class="st1" d="M20.9,62.3l-1-15.3v0.3c-0.1-0.2-0.1-0.4-0.1-0.5c0-0.2,0-0.3,0-0.5c0-0.3,0.1-0.6,0.2-0.9
			c0.3-0.6,0.7-1,1.1-1.3c0.2-0.1,0.5-0.3,0.6-0.3l0.5-0.3l1.1-0.5l0,0l-0.6,0.9v-8.6c0-0.6,0.4-1,1-1h2.6c0.6,0,1,0.4,1,1v8.2l0,0
			L27,42.8c-0.1-0.1,0,0,0,0l0.1,0.1l0.2,0.2l0.5,0.3c0.3,0.2,0.6,0.4,1.1,0.7c0.4,0.3,0.9,1,0.9,1.5c0.1,0.5,0.1,0.9,0.1,1.4
			c-0.1,1.6-0.2,3.2-0.2,4.8l-0.5,9.6l-0.4-9.6c-0.1-1.6-0.2-3.2-0.3-4.8c0-0.4-0.1-0.8-0.2-1c-0.1-0.3-0.1-0.3-0.4-0.5
			c-0.2-0.1-0.6-0.3-1-0.5l-0.6-0.3L26,44.5l-0.2-0.1c-0.1-0.1-0.1,0-0.2-0.2c-0.2-0.2-0.3-0.4-0.3-0.7v-0.1l0,0v-8.2l1,1h-2.6l1-1
			v8.6l0,0c0,0.4-0.2,0.7-0.6,0.9l0,0L23,45.2l-0.5,0.2c-0.1,0-0.2,0.1-0.2,0.1c-0.1,0-0.1,0.1-0.2,0.1c-0.2,0.1-0.4,0.3-0.5,0.4
			c0,0.1-0.1,0.2-0.1,0.2v0.1v0.1v0.3L20.9,62.3z"/>

			<radialGradient id="XMLID_4_" cx="45.8848" cy="4.299" r="158.0456" gradientTransform="matrix(1 0 0 -1 0 86.225)" gradientUnits="userSpaceOnUse">
			<stop  offset="0.2182" style="stop-color:#0000B3"/>
			<stop  offset="0.287" style="stop-color:#0018BC"/>
			<stop  offset="0.4327" style="stop-color:#0056D3"/>
			<stop  offset="0.6417" style="stop-color:#00B8F8"/>
			<stop  offset="0.6829" style="stop-color:#00CCFF"/>
			<stop  offset="0.7095" style="stop-color:#26D4FF"/>
			<stop  offset="0.7536" style="stop-color:#5FDFFF"/>
			<stop  offset="0.798" style="stop-color:#90E9FF"/>
			<stop  offset="0.8415" style="stop-color:#B8F1FF"/>
			<stop  offset="0.884" style="stop-color:#D7F7FF"/>
			<stop  offset="0.9252" style="stop-color:#EDFBFF"/>
			<stop  offset="0.9646" style="stop-color:#FAFEFF"/>
			<stop  offset="1" style="stop-color:#FFFFFF"/>
		</radialGradient>
		<path id="XMLID_1369_" class="st2" d="M21.6,43.9L12,26c-0.3-0.5-0.1-1.1,0.4-1.4s1.1-0.1,1.4,0.4v0.1L21.6,43.9z"/>

			<radialGradient id="XMLID_5_" cx="45.8848" cy="4.2992" r="158.0452" gradientTransform="matrix(1 0 0 -1 0 86.225)" gradientUnits="userSpaceOnUse">
			<stop  offset="0.2182" style="stop-color:#0000B3"/>
			<stop  offset="0.287" style="stop-color:#0018BC"/>
			<stop  offset="0.4327" style="stop-color:#0056D3"/>
			<stop  offset="0.6417" style="stop-color:#00B8F8"/>
			<stop  offset="0.6829" style="stop-color:#00CCFF"/>
			<stop  offset="0.7095" style="stop-color:#26D4FF"/>
			<stop  offset="0.7536" style="stop-color:#5FDFFF"/>
			<stop  offset="0.798" style="stop-color:#90E9FF"/>
			<stop  offset="0.8415" style="stop-color:#B8F1FF"/>
			<stop  offset="0.884" style="stop-color:#D7F7FF"/>
			<stop  offset="0.9252" style="stop-color:#EDFBFF"/>
			<stop  offset="0.9646" style="stop-color:#FAFEFF"/>
			<stop  offset="1" style="stop-color:#FFFFFF"/>
		</radialGradient>
		<path id="XMLID_1370_" class="st3" d="M28.5,43.6L35.3,25c0.2-0.5,0.8-0.8,1.3-0.6c0.5,0.2,0.8,0.8,0.6,1.3v0.1L28.5,43.6z"/>

			<radialGradient id="XMLID_6_" cx="45.8848" cy="4.299" r="158.0456" gradientTransform="matrix(1 0 0 -1 0 86.225)" gradientUnits="userSpaceOnUse">
			<stop  offset="0.2182" style="stop-color:#0000B3"/>
			<stop  offset="0.287" style="stop-color:#0018BC"/>
			<stop  offset="0.4327" style="stop-color:#0056D3"/>
			<stop  offset="0.6417" style="stop-color:#00B8F8"/>
			<stop  offset="0.6829" style="stop-color:#00CCFF"/>
			<stop  offset="0.7095" style="stop-color:#26D4FF"/>
			<stop  offset="0.7536" style="stop-color:#5FDFFF"/>
			<stop  offset="0.798" style="stop-color:#90E9FF"/>
			<stop  offset="0.8415" style="stop-color:#B8F1FF"/>
			<stop  offset="0.884" style="stop-color:#D7F7FF"/>
			<stop  offset="0.9252" style="stop-color:#EDFBFF"/>
			<stop  offset="0.9646" style="stop-color:#FAFEFF"/>
			<stop  offset="1" style="stop-color:#FFFFFF"/>
		</radialGradient>
		<path id="XMLID_1371_" class="st4" d="M13.6,25.2c0,0,0.2-0.2,0.7-0.4c0.5-0.2,1.3,0,2,0.7c0.3,0.3,0.7,0.8,0.9,1.3
			c0.1,0.3,0.3,0.5,0.3,0.9c0,0.2,0.1,0.3,0,0.5s-0.3,0.4-0.6,0.3c-0.4,0-0.7-0.3-1-0.6c-0.2-0.3-0.4-0.7-0.5-1.1
			c-0.1-0.9,0.4-1.6,1-2.2c0.3-0.3,0.7-0.6,1.1-0.7c0.4-0.2,1-0.2,1.5,0.1c0.5,0.3,0.8,0.7,1,1.1c0.2,0.5,0.3,0.9,0.4,1.4
			c0,0.2,0.1,0.5,0.1,0.8s0,0.6-0.3,0.9c-0.1,0.2-0.4,0.3-0.7,0.2c-0.2,0-0.4-0.1-0.5-0.2c-0.3-0.2-0.4-0.5-0.5-0.8
			c-0.2-1.2,0.4-2.2,1.2-3c0.4-0.4,0.9-0.7,1.6-0.8c0.7-0.1,1.4,0.4,1.7,0.9c0.4,0.5,0.5,1,0.7,1.6c0.1,0.3,0.1,0.5,0.2,0.8
			c0,0.3,0.1,0.6-0.1,1c-0.1,0.1-0.2,0.3-0.4,0.4c-0.2,0.1-0.4,0-0.5,0c-0.2-0.1-0.4-0.2-0.5-0.4c-0.2-0.3-0.4-0.5-0.4-0.8
			c-0.2-0.7-0.2-1.4,0-2s0.8-1.1,1.2-1.4c0.5-0.3,1.1-0.6,1.8-0.5c0.4,0.1,0.7,0.3,1,0.5c0.2,0.3,0.4,0.5,0.5,0.8
			c0.2,0.6,0.4,1.1,0.4,1.6c0,0.3,0.1,0.5,0.1,0.9c0,0.2-0.1,0.4-0.2,0.6c0,0.3-0.3,0.5-0.6,0.5c-0.6,0-0.9-0.4-1.1-0.7
			c-0.2-0.3-0.2-0.7-0.2-1c0.1-1.2,0.8-2.3,1.9-2.9c0.5-0.3,1.2-0.4,1.9-0.1c0.7,0.3,0.9,1,1,1.6s0.1,1.1,0,1.6
			c0,0.3-0.1,0.5-0.3,0.8c-0.1,0.1-0.2,0.3-0.3,0.4c-0.1,0.1-0.4,0.3-0.7,0.2c-0.5-0.2-0.6-0.6-0.7-0.9s-0.1-0.6,0-0.8
			c0.1-0.6,0.3-1,0.6-1.5c0.3-0.4,0.6-0.8,1.1-1c0.4-0.3,1-0.4,1.5-0.3s0.9,0.5,1.2,0.8c0.3,0.4,0.4,0.8,0.6,1.2
			c0.1,0.4,0.3,0.8,0.3,1.2c0,0.4,0.1,0.9-0.4,1.3c-0.2,0.2-0.6,0.1-0.8,0c-0.2-0.1-0.3-0.3-0.4-0.5c-0.1-0.4-0.1-0.8,0-1.1
			c0.1-0.7,0.4-1.3,1-1.6c0.5-0.3,1.1-0.3,1.6-0.1c0.9,0.3,1.5,0.7,2,0.9c0.2,0.1,0.4,0.2,0.5,0.3c0.2,0.1,0,0.1,0,0.1s0.1,0.1,0,0
			s-0.3-0.1-0.5-0.2c-0.5-0.2-1.1-0.6-2-0.8c-0.4-0.1-1-0.1-1.4,0.2c-0.4,0.3-0.7,0.9-0.7,1.4c0,0.3-0.1,0.6,0.1,0.9
			c0.1,0.3,0.4,0.4,0.5,0.3s0.2-0.5,0.1-0.8c0-0.3-0.2-0.7-0.3-1c-0.5-1-0.9-1.7-1.5-1.9c-0.7-0.1-1.4,0.4-1.8,1.1
			c-0.2,0.3-0.4,0.7-0.4,1.1c0,0.2,0,0.4,0,0.6s0.2,0.3,0.1,0.2c-0.1,0,0,0,0.1-0.2s0.1-0.4,0.2-0.6c0.1-0.4,0-0.9,0-1.3
			c-0.1-0.4-0.3-0.8-0.5-0.9c-0.3-0.1-0.7-0.1-1.1,0.1c-0.8,0.4-1.3,1.3-1.4,2.1c0,0.2,0,0.4,0.1,0.5s0.2,0.2,0.2,0.2
			c-0.1,0,0,0.1,0-0.1c0-0.1-0.1-0.4-0.1-0.7c-0.1-0.5-0.2-1-0.4-1.4c-0.2-0.4-0.4-0.7-0.7-0.8c-0.3-0.1-0.8,0.1-1.2,0.4
			c-0.4,0.3-0.7,0.5-0.9,0.9c-0.2,0.4-0.2,0.8,0,1.2c0.1,0.2,0.2,0.4,0.3,0.5c0.1,0.1,0.1,0.1,0.1,0.1s-0.1,0-0.2,0
			s-0.1,0.1-0.1,0.1s0-0.3,0-0.5S23,26.2,22.9,26c-0.1-0.5-0.3-1-0.5-1.3s-0.5-0.5-0.9-0.5s-0.7,0.2-1.1,0.5c-0.6,0.6-1.1,1.5-1,2.2
			c0,0.2,0.1,0.3,0.2,0.4l0.1,0.1l0,0c0,0,0.1-0.2,0.1-0.4c0-0.2,0-0.4,0-0.6c-0.2-0.8-0.4-1.7-1-2.1c-0.6-0.3-1.4,0-1.9,0.5
			s-1,1.1-0.9,1.8c0.1,0.6,0.5,1.2,1,1.3c0.2,0,0.3-0.2,0.2-0.5c0-0.3-0.1-0.5-0.3-0.8c-0.2-0.5-0.5-0.9-0.8-1.3
			c-0.6-0.7-1.4-0.9-1.9-0.7C13.8,25,13.6,25.2,13.6,25.2z"/>

			<radialGradient id="XMLID_7_" cx="45.8848" cy="4.299" r="158.0458" gradientTransform="matrix(1 0 0 -1 0 86.225)" gradientUnits="userSpaceOnUse">
			<stop  offset="0.2182" style="stop-color:#0000B3"/>
			<stop  offset="0.287" style="stop-color:#0018BC"/>
			<stop  offset="0.4327" style="stop-color:#0056D3"/>
			<stop  offset="0.6417" style="stop-color:#00B8F8"/>
			<stop  offset="0.6829" style="stop-color:#00CCFF"/>
			<stop  offset="0.7095" style="stop-color:#26D4FF"/>
			<stop  offset="0.7536" style="stop-color:#5FDFFF"/>
			<stop  offset="0.798" style="stop-color:#90E9FF"/>
			<stop  offset="0.8415" style="stop-color:#B8F1FF"/>
			<stop  offset="0.884" style="stop-color:#D7F7FF"/>
			<stop  offset="0.9252" style="stop-color:#EDFBFF"/>
			<stop  offset="0.9646" style="stop-color:#FAFEFF"/>
			<stop  offset="1" style="stop-color:#FFFFFF"/>
		</radialGradient>
		<path id="XMLID_1372_" class="st5" d="M13.3,69.1c0,0,0-0.1,0.1-0.3c0.1-0.3,0.3-0.7,0.6-1.1c0.4-0.4,0.9-0.6,1.4-0.8
			c0.5-0.2,1.1-0.3,1.7-0.4c2.4-0.3,5.4-0.2,8.4,0c3,0.1,6,0.3,8.3,0.3c1.1,0,2.1-0.1,2.6-0.4c0.3-0.2,0.4-0.4,0.4-0.6s0-0.3,0-0.3
			s0,0.1,0,0.3c0,0.2-0.1,0.4-0.4,0.7c-0.6,0.4-1.5,0.6-2.7,0.7c-2.3,0.2-5.3,0.3-8.3,0.4c-1.5,0.1-3,0.1-4.4,0.2s-2.7,0.3-3.7,0.5
			c-0.5,0.1-1,0.3-1.3,0.4c-0.4,0.1-0.6,0.3-0.6,0.4c-0.1,0.1-0.1,0.2-0.1,0.2c0,0.2,0,0.2,0,0.2l0,0c-0.1,0.5-0.6,0.9-1.2,0.8
			C13.5,70.3,13.2,69.8,13.3,69.1C13.3,69.2,13.3,69.1,13.3,69.1z"/>

			<radialGradient id="XMLID_8_" cx="45.8848" cy="4.2991" r="158.0452" gradientTransform="matrix(1 0 0 -1 0 86.225)" gradientUnits="userSpaceOnUse">
			<stop  offset="0.2182" style="stop-color:#0000B3"/>
			<stop  offset="0.287" style="stop-color:#0018BC"/>
			<stop  offset="0.4327" style="stop-color:#0056D3"/>
			<stop  offset="0.6417" style="stop-color:#00B8F8"/>
			<stop  offset="0.6829" style="stop-color:#00CCFF"/>
			<stop  offset="0.7095" style="stop-color:#26D4FF"/>
			<stop  offset="0.7536" style="stop-color:#5FDFFF"/>
			<stop  offset="0.798" style="stop-color:#90E9FF"/>
			<stop  offset="0.8415" style="stop-color:#B8F1FF"/>
			<stop  offset="0.884" style="stop-color:#D7F7FF"/>
			<stop  offset="0.9252" style="stop-color:#EDFBFF"/>
			<stop  offset="0.9646" style="stop-color:#FAFEFF"/>
			<stop  offset="1" style="stop-color:#FFFFFF"/>
		</radialGradient>
		<path id="XMLID_1373_" class="st6" d="M13.3,72.3c0,0,0-0.1,0.1-0.3c0.1-0.3,0.3-0.7,0.6-1.1c0.4-0.4,0.9-0.6,1.4-0.8
			c0.5-0.2,1.1-0.3,1.7-0.4c2.4-0.3,5.4-0.2,8.4,0c3,0.1,6,0.3,8.3,0.3c1.1,0,2.1-0.1,2.6-0.4c0.3-0.2,0.4-0.4,0.4-0.6s0-0.3,0-0.3
			s0,0.1,0,0.3c0,0.2-0.1,0.4-0.4,0.7c-0.6,0.4-1.5,0.6-2.7,0.7c-2.3,0.2-5.3,0.3-8.3,0.4c-1.5,0.1-3,0.1-4.4,0.2s-2.7,0.3-3.7,0.5
			c-0.5,0.1-1,0.3-1.3,0.4c-0.4,0.1-0.6,0.3-0.6,0.4c-0.1,0.1-0.1,0.2-0.1,0.2c0,0.2,0,0.2,0,0.2l0,0c-0.1,0.5-0.6,0.9-1.2,0.8
			C13.5,73.4,13.2,72.9,13.3,72.3L13.3,72.3z"/>

			<radialGradient id="XMLID_9_" cx="45.8848" cy="4.2991" r="158.045" gradientTransform="matrix(1 0 0 -1 0 86.225)" gradientUnits="userSpaceOnUse">
			<stop  offset="0.2182" style="stop-color:#0000B3"/>
			<stop  offset="0.287" style="stop-color:#0018BC"/>
			<stop  offset="0.4327" style="stop-color:#0056D3"/>
			<stop  offset="0.6417" style="stop-color:#00B8F8"/>
			<stop  offset="0.6829" style="stop-color:#00CCFF"/>
			<stop  offset="0.7095" style="stop-color:#26D4FF"/>
			<stop  offset="0.7536" style="stop-color:#5FDFFF"/>
			<stop  offset="0.798" style="stop-color:#90E9FF"/>
			<stop  offset="0.8415" style="stop-color:#B8F1FF"/>
			<stop  offset="0.884" style="stop-color:#D7F7FF"/>
			<stop  offset="0.9252" style="stop-color:#EDFBFF"/>
			<stop  offset="0.9646" style="stop-color:#FAFEFF"/>
			<stop  offset="1" style="stop-color:#FFFFFF"/>
		</radialGradient>
		<path id="XMLID_1374_" class="st7" d="M13.3,75.4c0,0,0-0.1,0.1-0.3c0.1-0.3,0.3-0.7,0.6-1.1c0.4-0.4,0.9-0.6,1.4-0.8
			c0.5-0.2,1.1-0.3,1.7-0.4c2.4-0.3,5.4-0.2,8.4,0c3,0.1,6,0.3,8.3,0.3c1.1,0,2.1-0.1,2.6-0.4c0.3-0.2,0.4-0.4,0.4-0.6s0-0.3,0-0.3
			s0,0.1,0,0.3c0,0.2-0.1,0.4-0.4,0.7c-0.6,0.4-1.5,0.6-2.7,0.7c-2.3,0.2-5.3,0.3-8.3,0.4c-1.5,0.1-3,0.1-4.4,0.2s-2.7,0.3-3.7,0.5
			c-0.5,0.1-1,0.3-1.3,0.4c-0.4,0.1-0.6,0.3-0.6,0.4c-0.1,0.1-0.1,0.2-0.1,0.2c0,0.2,0,0.2,0,0.2l0,0c-0.1,0.5-0.6,0.9-1.2,0.8
			C13.5,76.6,13.2,76.1,13.3,75.4C13.3,75.5,13.3,75.5,13.3,75.4z"/>

			<radialGradient id="XMLID_10_" cx="45.8848" cy="4.2991" r="158.0456" gradientTransform="matrix(1 0 0 -1 0 86.225)" gradientUnits="userSpaceOnUse">
			<stop  offset="0.2182" style="stop-color:#0000B3"/>
			<stop  offset="0.287" style="stop-color:#0018BC"/>
			<stop  offset="0.4327" style="stop-color:#0056D3"/>
			<stop  offset="0.6417" style="stop-color:#00B8F8"/>
			<stop  offset="0.6829" style="stop-color:#00CCFF"/>
			<stop  offset="0.7095" style="stop-color:#26D4FF"/>
			<stop  offset="0.7536" style="stop-color:#5FDFFF"/>
			<stop  offset="0.798" style="stop-color:#90E9FF"/>
			<stop  offset="0.8415" style="stop-color:#B8F1FF"/>
			<stop  offset="0.884" style="stop-color:#D7F7FF"/>
			<stop  offset="0.9252" style="stop-color:#EDFBFF"/>
			<stop  offset="0.9646" style="stop-color:#FAFEFF"/>
			<stop  offset="1" style="stop-color:#FFFFFF"/>
		</radialGradient>
		<path id="XMLID_1375_" class="st8" d="M13.3,78.6c0,0,0-0.1,0.1-0.3c0.1-0.3,0.3-0.7,0.6-1.1c0.4-0.4,0.9-0.6,1.4-0.8
			c0.5-0.2,1.1-0.3,1.7-0.4c2.4-0.3,5.4-0.2,8.4,0c3,0.1,6,0.3,8.3,0.3c1.1,0,2.1-0.1,2.6-0.4c0.3-0.2,0.4-0.4,0.4-0.6s0-0.3,0-0.3
			s0,0.1,0,0.3c0,0.2-0.1,0.4-0.4,0.7c-0.6,0.4-1.5,0.6-2.7,0.7c-2.3,0.2-5.3,0.3-8.3,0.4c-1.5,0.1-3,0.1-4.4,0.2s-2.7,0.3-3.7,0.5
			c-0.5,0.1-1,0.3-1.3,0.4c-0.4,0.1-0.6,0.3-0.6,0.4c-0.1,0.1-0.1,0.2-0.1,0.2c0,0.2,0,0.2,0,0.2l0,0c-0.1,0.5-0.6,0.9-1.2,0.8
			C13.5,79.7,13.2,79.2,13.3,78.6C13.3,78.7,13.3,78.6,13.3,78.6z"/>

			<radialGradient id="XMLID_11_" cx="45.8848" cy="4.2991" r="158.0453" gradientTransform="matrix(1 0 0 -1 0 86.225)" gradientUnits="userSpaceOnUse">
			<stop  offset="0.2182" style="stop-color:#0000B3"/>
			<stop  offset="0.287" style="stop-color:#0018BC"/>
			<stop  offset="0.4327" style="stop-color:#0056D3"/>
			<stop  offset="0.6417" style="stop-color:#00B8F8"/>
			<stop  offset="0.6829" style="stop-color:#00CCFF"/>
			<stop  offset="0.7095" style="stop-color:#26D4FF"/>
			<stop  offset="0.7536" style="stop-color:#5FDFFF"/>
			<stop  offset="0.798" style="stop-color:#90E9FF"/>
			<stop  offset="0.8415" style="stop-color:#B8F1FF"/>
			<stop  offset="0.884" style="stop-color:#D7F7FF"/>
			<stop  offset="0.9252" style="stop-color:#EDFBFF"/>
			<stop  offset="0.9646" style="stop-color:#FAFEFF"/>
			<stop  offset="1" style="stop-color:#FFFFFF"/>
		</radialGradient>
		<path id="XMLID_1376_" class="st9" d="M15.1,79.4c0,0,0.2,0.3,0.7,0.7c0.5,0.4,1.2,0.7,2.3,0.8c0.5,0,1,0,1.7,0
			c0.6,0,1.3-0.1,2-0.1c1.4-0.1,2.8-0.1,4.3-0.1s2.9,0.1,4.3,0.2c0.3,0,0.7,0,1,0.1c0.2,0,0.3,0,0.5,0c0.2,0,0.3,0,0.5,0
			c0.6,0,1.1,0,1.5-0.2c0.4-0.1,0.8-0.4,1-0.7c0.2-0.3,0.4-0.6,0.5-0.9c0.2-0.6,0.3-1,0.3-1s0,0.1,0,0.3c0,0.2,0.1,0.4,0,0.8
			c0,0.3,0,0.8-0.2,1.2c-0.2,0.5-0.6,1-1.2,1.3c-0.6,0.3-1.2,0.6-1.9,0.6c-0.2,0-0.3,0-0.5,0.1c-0.2,0-0.3,0-0.5,0
			c-0.3,0-0.7,0-1,0.1c-1.4,0.1-2.8,0.1-4.3,0.1s-2.9-0.1-4.3-0.2c-0.7,0-1.4-0.1-2-0.2c-0.6,0-1.3-0.1-1.9-0.3
			c-0.6-0.2-1.1-0.4-1.5-0.7c-0.4-0.3-0.7-0.7-0.8-0.9c-0.2-0.3-0.3-0.6-0.3-0.7C15.1,79.5,15.1,79.4,15.1,79.4z"/>

			<radialGradient id="XMLID_12_" cx="45.8848" cy="4.2991" r="158.0459" gradientTransform="matrix(1 0 0 -1 0 86.225)" gradientUnits="userSpaceOnUse">
			<stop  offset="0.2182" style="stop-color:#0000B3"/>
			<stop  offset="0.287" style="stop-color:#0018BC"/>
			<stop  offset="0.4327" style="stop-color:#0056D3"/>
			<stop  offset="0.6417" style="stop-color:#00B8F8"/>
			<stop  offset="0.6829" style="stop-color:#00CCFF"/>
			<stop  offset="0.7095" style="stop-color:#26D4FF"/>
			<stop  offset="0.7536" style="stop-color:#5FDFFF"/>
			<stop  offset="0.798" style="stop-color:#90E9FF"/>
			<stop  offset="0.8415" style="stop-color:#B8F1FF"/>
			<stop  offset="0.884" style="stop-color:#D7F7FF"/>
			<stop  offset="0.9252" style="stop-color:#EDFBFF"/>
			<stop  offset="0.9646" style="stop-color:#FAFEFF"/>
			<stop  offset="1" style="stop-color:#FFFFFF"/>
		</radialGradient>
		<path id="XMLID_1377_" class="st10" d="M30.8,82.4c0,0,0,0.2-0.1,0.6s-0.5,1-1.2,1.3c-0.3,0.2-0.8,0.3-1.1,0.3
			c-0.4,0.1-0.7,0.1-1.1,0.1c-0.8,0.1-1.6,0.1-2.4,0.1s-1.7,0-2.4-0.1c-0.2,0-0.4,0-0.6-0.1c-0.3,0-0.3,0-0.6-0.1
			c-0.5-0.1-0.9-0.3-1.2-0.7c-0.3-0.3-0.4-0.7-0.5-1c0-0.3,0-0.5,0-0.7c0.1-0.4,0.1-0.6,0.1-0.6s0.1,0.2,0.2,0.5s0.4,0.8,0.8,0.9
			c0.2,0.1,0.4,0.1,0.6,0.1c0.1,0,0.4,0,0.5,0c0.2,0,0.4,0,0.6-0.1c0.8-0.1,1.6-0.1,2.4-0.1s1.7,0,2.4,0.1c0.4,0,0.8,0.1,1.1,0.1
			c0.3,0.1,0.6,0.1,0.8,0.1c0.5,0,0.9-0.2,1.2-0.4C30.6,82.6,30.8,82.4,30.8,82.4z"/>
	</g>
</g>
<g>
	<g>
		<path class="st11" d="M86.1,29.4c-0.8-3.9-2.4-7.7-6.7-7.7c-3.8,0-5.3,3.2-5.3,6.3c0,4.2,2.3,6.2,6.2,8.6c3.8,2.3,8.4,5,8.4,11.6
			c0,6.2-4.4,11.1-10.6,11.1c-2.7,0-5.4-1-7.5-1.8c-0.3-1.5-1-6.2-1.3-9l1.5-0.5c0.8,3.6,3,9.1,8,9.1c3.7,0,5.8-2.7,5.8-6.9
			c0-4.4-2.5-6.4-6.3-8.8c-3.2-2-8-4.9-8-11.6c0-5.6,3.5-10.2,9.9-10.2c2.9,0,5.6,0.9,6.7,1c0.2,2.1,0.4,4.6,0.8,8.4L86.1,29.4z"/>
		<path class="st11" d="M102.1,58.3c-0.8,0.5-1.6,0.8-2.1,0.8c-3.1,0-4.8-2.3-4.8-6.9V35.1h-3.4l-0.2-0.7l1.3-1.7h2.2v-4.9
			c0.9-1.2,2.3-2.7,3.3-3.9l0.7,0.1C99,26.5,99,29.8,99,32.6h5.5c0.4,0.6,0.3,1.9-0.3,2.4h-5.3v15.1c0,4.7,1.6,5.6,2.8,5.6
			c1.2,0,2.3-0.5,3-0.9l0.4,1.5L102.1,58.3z"/>
		<path class="st11" d="M130.8,57c-2.3,0.4-5,1.2-7.4,2c0-0.9,0-3,0-4.5c-2.6,2.6-4.8,4.5-7.4,4.5c-3.3,0-6.1-2.4-6.1-8.8V39
			c0-3.2-0.4-3.5-1.6-3.8l-1.4-0.3v-1.5c2.1-0.1,5.3-0.7,7-1.1c-0.1,1.9-0.1,4.7-0.1,8.5v7.9c0,5.1,2.2,6.6,4.4,6.6
			c1.8,0,3.6-0.9,5.3-2.8V39c0-3.2-0.6-3.6-2.2-3.9l-1.6-0.2v-1.5c3.1-0.2,6.5-0.8,7.6-1.1v19.6c0,2.9,0.4,3.3,2.2,3.4l1.4,0.1V57
			H130.8z"/>
		<path class="st11" d="M157,56.9c-1,0.2-4.7,0.9-7.5,2.2c0-1.2,0-2.6,0-3.8c-0.9,0.6-2.1,1.5-3,2.1c-1.9,1.3-3.3,1.7-3.8,1.7
			c-3.9,0-9-4.7-9-12.8s5.9-14.2,12.6-14.2c0.7,0,2.3,0.1,3.3,0.6v-8.6c0-3.7-0.3-3.9-3.8-4.2v-1.5c2.4-0.4,5.8-1.2,7.6-2
			c0,2.2,0,4.7,0,7.1v28.1c0,3,0.3,3.3,2.1,3.6l1.6,0.1v1.6H157z M149.4,37.3c-1.1-2-3.2-3-5.1-3c-2.3,0-6.5,1.9-6.5,10.3
			c0,7.1,3.6,10.8,6.8,10.9c1.8,0,3.6-1.1,4.8-2.1V37.3z"/>
		<path class="st11" d="M180.6,34.3c-2.5,0.5-3.1,0.9-4.3,4.3c-1.2,3.3-2.5,7.2-5.9,17.4c-3.2,9.3-4,13-4.8,16
			c-0.3,1.2-0.8,1.5-1.5,1.5c-1.6,0-3-1.3-3-2.8c0-0.8,0.3-1.3,1.1-2c1.6-1.5,2.7-2.9,3.3-4.3c1-2.5,1.8-4.5,2-5.3
			c0.2-0.9,0.2-1.4-0.1-2.4c-1.9-6.7-4.5-13.8-6-18c-1.1-3.2-1.5-3.9-4.2-4.3v-1.6h9.8v1.6c-2.2,0.4-2.5,1-1.8,3.2l4.7,14.4
			c1.4-4,3.3-10.5,4.3-14.2c0.6-2.2,0.2-2.9-2.6-3.3v-1.6h8.9v1.4H180.6z"/>
		<path class="st12" d="M207.3,29.6c-0.4-1.9-1-3.8-1.6-4.8c-0.8-1.6-1.3-2-3.9-2h-4.9v28.4c0,4.6,0.4,5.2,5,5.5v1.6h-14.1v-1.6
			c4.5-0.4,4.9-0.9,4.9-5.5V22.8h-4.4c-2.7,0-3.5,0.4-4.3,2.1c-0.6,1.2-1,2.6-1.6,4.7h-1.5c0.3-3.6,0.6-7.2,0.7-10.5h1.1
			c0.7,1.4,1.3,1.3,2.6,1.3h19.3c1.4,0,1.8-0.2,2.5-1.3h1.2c0,2.7,0.2,6.9,0.4,10.3L207.3,29.6z"/>
		<path class="st12" d="M227.5,59.1c-0.7,0-1.8-0.5-2.3-1.1c-0.6-0.8-0.9-1.6-1.2-2.6c-1.9,1.6-4.3,3.7-5.8,3.7
			c-3.5,0-5.9-3.4-5.9-7.2c0-2.9,1.3-4.7,4-5.8c3-1.2,6.6-2.7,7.7-3.8v-1.2c0-4.1-1.8-6.5-4.3-6.5c-1.1,0-1.8,0.6-2.3,1.3
			c-0.5,0.8-0.9,2.1-1.3,3.8c-0.2,0.9-0.7,1.3-1.4,1.3c-0.9,0-2.1-1.2-2.1-2.6c0-0.8,0.6-1.5,1.6-2.3c1.4-1.2,4.2-3.4,7-4.1
			c1.5,0,3,0.5,4.1,1.6c1.7,1.8,2.5,3.7,2.5,6.8c0,3.2,0,8.1,0,11.3c0,2.7,0.8,3.5,1.7,3.5c0.6,0,1.2-0.3,1.8-0.6l0.5,1.6
			L227.5,59.1z M224,44.3c-1.1,0.6-3.4,1.9-4.5,2.5c-1.8,1-3,2.1-3,4.3c0,3.1,1.9,4.5,3.5,4.5c1.3,0,3-0.9,4-2.1
			C224,50.7,224,47,224,44.3z"/>
		<path class="st12" d="M247.6,58.4v-1.6c2.8-0.4,3.1-0.8,3.1-4.7v-9.6c0-4.1-1.2-6.8-4.4-6.8c-2,0-3.9,1.4-5.4,3v13.7
			c0,4,0.3,4.1,3.2,4.5v1.6h-10.5v-1.6c3.2-0.4,3.5-0.6,3.5-4.5v-12c0-3.8-0.3-4-3-4.5v-1.5c2.4-0.5,4.8-1.2,6.8-2.3
			c0,1.3,0,3.2,0,4.6c1-0.8,2-1.7,3.3-2.7c1.4-1.1,2.6-1.8,4-1.8c3.9,0,6.3,3.4,6.3,9.1v11.1c0,4,0.3,4.1,3.1,4.5v1.6h-10V58.4z"/>
		<path class="st12" d="M284.2,58.4c-2.6,0-5.5,0.1-6.5,0.1c-0.3-0.4-7.9-11.3-8.2-11.6c-0.6-0.9-1-1.2-1.4-1.2
			c-0.2,0-0.6,0-0.9,0.1v6.5c0,3.9,0.2,4.1,3.4,4.5v1.6h-10.8v-1.6c3.3-0.4,3.5-0.8,3.5-4.5v-28c0-3.8-0.3-3.9-3.4-4.4v-1.5
			c2.5-0.3,5.4-1.2,7.2-2c0,2.5,0,4.9,0,7.4v20.4c1.5-0.4,2.4-1.1,3.1-2c1.1-1.3,2.9-3.8,3.7-5.3c1-1.7,0.6-2.2-1.7-2.4v-1.6l10-0.5
			V34c-3.4,0.6-4.4,1.1-6.5,3.7c-0.9,1.2-3.1,4-4.1,5.5c1,1.6,5.9,8.4,7.5,10.4c2.3,2.8,3,3,4.9,3.1v1.7H284.2z"/>
	</g>
</g>
</svg>
