<?xml version="1.0" encoding="utf-8"?>
<!-- Generator: Adobe Illustrator 22.1.0, SVG Export Plug-In . SVG Version: 6.00 Build 0)  -->
<svg version="1.1" id="Design" xmlns="http://www.w3.org/2000/svg" xmlns:xlink="http://www.w3.org/1999/xlink" x="0px" y="0px"
	 viewBox="0 0 56.8 84.8" style="enable-background:new 0 0 56.8 84.8;" xml:space="preserve">
<style type="text/css">
	.st0{fill:url(#XMLID_2_);}
	.st1{fill:url(#XMLID_3_);}
	.st2{fill:url(#XMLID_4_);}
	.st3{fill:url(#XMLID_5_);}
	.st4{fill:url(#XMLID_6_);}
	.st5{fill:url(#XMLID_7_);}
	.st6{fill:url(#XMLID_8_);}
	.st7{fill:url(#XMLID_9_);}
	.st8{fill:url(#XMLID_10_);}
	.st9{fill:url(#XMLID_11_);}
	.st10{fill:url(#XMLID_12_);}
</style>
<g id="XMLID_1302_">
	<g id="XMLID_1366_">
		<radialGradient id="XMLID_2_" cx="46.0809" cy="81.8134" r="158.0448" gradientUnits="userSpaceOnUse">
			<stop  offset="0.2182" style="stop-color:#0000B3"/>
			<stop  offset="0.287" style="stop-color:#0018BC"/>
			<stop  offset="0.4327" style="stop-color:#0056D3"/>
			<stop  offset="0.6417" style="stop-color:#00B8F8"/>
			<stop  offset="0.6829" style="stop-color:#00CCFF"/>
			<stop  offset="0.7095" style="stop-color:#26D4FF"/>
			<stop  offset="0.7536" style="stop-color:#5FDFFF"/>
			<stop  offset="0.798" style="stop-color:#90E9FF"/>
			<stop  offset="0.8415" style="stop-color:#B8F1FF"/>
			<stop  offset="0.884" style="stop-color:#D7F7FF"/>
			<stop  offset="0.9252" style="stop-color:#EDFBFF"/>
			<stop  offset="0.9646" style="stop-color:#FAFEFF"/>
			<stop  offset="1" style="stop-color:#FFFFFF"/>
		</radialGradient>
		<path id="XMLID_1367_" class="st0" d="M32,61.2c1.2,0.7,2.6,1,4,1.2c1.4,0.2,2.8,0.3,4.2,0.3c0.7,0,1.4,0,2.1-0.1
			c0.7-0.1,1.4-0.1,2.1-0.3c0.7-0.1,1.4-0.3,2-0.4c0.7-0.2,1.3-0.4,2-0.6c0.6-0.2,1.2-0.6,1.6-1.1c0.4-0.5,0.7-1.1,0.8-1.7
			c0.1-0.6,0.1-1.3-0.1-2c-0.1-0.7-0.4-1.3-0.7-1.9c-0.3-0.7-0.5-1.5-0.4-2.2c0.1-0.4,0.2-0.8,0.4-1.1c0.1-0.2,0.3-0.3,0.4-0.5
			l0.4-0.3c0.5-0.4,0.7-1,0.7-1.6c0-0.4-0.1-0.6-0.2-0.9c-0.1-0.2-0.4-0.4-0.5-0.5l-0.9-0.3l0.8-0.4c0.6-0.3,1.3-0.8,1.7-1.2
			c0.2-0.2,0.3-0.5,0.3-0.7c0-0.3-0.1-0.6-0.3-0.9c-0.3-0.7-0.7-1.3-1.1-2c-0.1-0.4-0.3-0.9-0.1-1.4c0.3-0.5,0.6-0.7,0.9-1
			c1.3-0.9,2.6-1.7,3-2.9c0.2-0.6,0.1-1.3-0.3-1.8c-0.3-0.5-1-1.1-1.5-1.6c-1.1-1-2.2-2-3.4-3.1l-1.7-1.5c-0.6-0.5-1.1-1.1-1.6-1.9
			c-0.2-0.4-0.4-0.8-0.4-1.3c0-0.5,0-0.9,0.1-1.3c0.1-0.8,0.3-1.5,0.3-2.2c0.1-1.5-0.1-3-0.4-4.4c-0.6-2.9-1.9-5.6-3.8-7.8
			c-2-2.2-4.4-4-7-5.3C30.3,1.8,24,1,18.3,2.6c-2.9,0.8-5.6,2.1-8,3.9C9.1,7.3,8,8.4,6.9,9.4c-0.5,0.6-1,1.1-1.5,1.7L4.8,12L4.2,13
			c-0.4,0.6-0.8,1.3-1.1,1.9c-0.3,0.7-0.7,1.3-0.9,2.1c-0.6,1.4-0.9,2.9-1.1,4.3c-0.4,3-0.3,6,0.4,9c0.6,3,1.6,5.8,2.9,8.6
			c1.3,2.8,2.8,5.4,4.4,7.9c1.6,2.6,3.1,5.3,4.3,8.1c0.3,0.7,0.6,1.4,0.8,2.1c0.2,0.7,0.4,1.5,0.4,2.2c-0.1,1.5-0.1,3,0,4.6
			c-0.1-1.5-0.1-3-0.1-4.6c0-0.8-0.2-1.5-0.4-2.2c-0.2-0.7-0.5-1.4-0.8-2.1c-1.3-2.8-2.8-5.4-4.4-8c-3.4-5-6.4-10.5-7.7-16.6
			c-0.7-3-0.9-6.1-0.5-9.2c0.2-1.5,0.5-3.1,1.1-4.6c0.2-0.8,0.6-1.5,0.9-2.2c0.4-0.7,0.7-1.4,1.1-2.1l0.6-1l0.7-1
			C5,9.8,5.6,9.2,6,8.6c1.1-1.2,2.2-2.3,3.4-3.3c2.5-2,5.3-3.5,8.4-4.4c3.1-0.9,6.3-1.2,9.5-0.9c3.2,0.3,6.3,1.2,9.2,2.6
			c1.4,0.7,2.8,1.5,4.1,2.5l1,0.7l0.9,0.8c0.5,0.5,1.2,1.1,1.7,1.7c2.1,2.5,3.5,5.6,4.1,8.7c0.3,1.6,0.4,3.2,0.3,4.8
			c0,0.8-0.2,1.7-0.3,2.4c-0.1,0.7-0.1,1.1,0.1,1.5c0.5,1,1.8,2,2.9,3c1.1,1,2.3,2.1,3.4,3.1l0.8,0.8c0.2,0.2,0.6,0.6,0.9,1
			c0.5,0.8,0.7,2,0.4,3c-0.3,1-0.9,1.7-1.6,2.3c-0.2,0.2-0.3,0.2-0.5,0.4L54,40l-0.9,0.6c-0.3,0.2-0.5,0.4-0.5,0.4c0,0,0,0,0,0.1
			c0,0.1,0.1,0.2,0.1,0.4c0.2,0.6,0.6,1.3,1,2c0.2,0.4,0.4,0.8,0.4,1.4c0,0.3-0.1,0.7-0.2,0.9c-0.1,0.3-0.3,0.5-0.5,0.7
			c-0.7,0.6-1.3,1-2.1,1.4l-0.1-1.4c1.2,0.4,1.6,1.6,1.6,2.4c0,0.5,0,0.9-0.2,1.4c-0.2,0.4-0.5,0.8-0.8,1.1l-0.4,0.4
			c-0.1,0.1-0.1,0.1-0.2,0.3c-0.1,0.2-0.2,0.5-0.3,0.7c-0.1,0.5,0,1.1,0.3,1.7c0.3,0.6,0.6,1.4,0.7,2.1c0.1,0.7,0.2,1.5,0,2.3
			c-0.2,0.8-0.5,1.5-1.1,2.1c-0.6,0.6-1.2,1-2,1.2c-0.7,0.2-1.4,0.4-2.1,0.6c-0.7,0.2-1.4,0.3-2.1,0.4c-0.7,0.1-1.4,0.1-2.1,0.2
			c-0.7,0-1.4,0-2.1,0c-1.4-0.1-2.8-0.2-4.2-0.5C34.6,62.3,33.2,61.9,32,61.2z"/>
		<radialGradient id="XMLID_3_" cx="46.081" cy="81.8133" r="158.0449" gradientUnits="userSpaceOnUse">
			<stop  offset="0.2182" style="stop-color:#0000B3"/>
			<stop  offset="0.287" style="stop-color:#0018BC"/>
			<stop  offset="0.4327" style="stop-color:#0056D3"/>
			<stop  offset="0.6417" style="stop-color:#00B8F8"/>
			<stop  offset="0.6829" style="stop-color:#00CCFF"/>
			<stop  offset="0.7095" style="stop-color:#26D4FF"/>
			<stop  offset="0.7536" style="stop-color:#5FDFFF"/>
			<stop  offset="0.798" style="stop-color:#90E9FF"/>
			<stop  offset="0.8415" style="stop-color:#B8F1FF"/>
			<stop  offset="0.884" style="stop-color:#D7F7FF"/>
			<stop  offset="0.9252" style="stop-color:#EDFBFF"/>
			<stop  offset="0.9646" style="stop-color:#FAFEFF"/>
			<stop  offset="1" style="stop-color:#FFFFFF"/>
		</radialGradient>
		<path id="XMLID_1368_" class="st1" d="M21.1,62.2l-1-15.3l0,0.3c-0.1-0.2-0.1-0.4-0.1-0.5c0-0.2,0-0.3,0-0.5
			c0-0.3,0.1-0.6,0.2-0.9c0.3-0.6,0.7-1,1.1-1.3c0.2-0.1,0.5-0.3,0.6-0.3l0.5-0.3l1.1-0.5l0,0l-0.6,0.9v-8.6c0-0.6,0.4-1,1-1h2.6
			c0.6,0,1,0.4,1,1v8.2v0l-0.3-0.7c-0.1-0.1,0,0,0,0l0.1,0.1l0.2,0.2l0.5,0.3c0.3,0.2,0.6,0.4,1.1,0.7c0.4,0.3,0.9,1,0.9,1.5
			c0.1,0.5,0.1,0.9,0.1,1.4c-0.1,1.6-0.2,3.2-0.2,4.8l-0.5,9.6L29,51.7c-0.1-1.6-0.2-3.2-0.3-4.8c0-0.4-0.1-0.8-0.2-1
			c-0.1-0.3-0.1-0.3-0.4-0.5c-0.2-0.1-0.6-0.3-1-0.5l-0.6-0.3l-0.3-0.2l-0.2-0.1c-0.1-0.1-0.1,0-0.2-0.2c-0.2-0.2-0.3-0.4-0.3-0.7
			v-0.1v0v-8.2l1,1h-2.6l1-1v8.6v0c0,0.4-0.2,0.7-0.6,0.9l0,0l-1.1,0.5l-0.5,0.2c-0.1,0-0.2,0.1-0.2,0.1c-0.1,0-0.1,0.1-0.2,0.1
			c-0.2,0.1-0.4,0.3-0.5,0.4c0,0.1-0.1,0.2-0.1,0.2c0,0,0,0.1,0,0.1c0,0,0,0.1,0,0.1l0,0.3L21.1,62.2z"/>
		<radialGradient id="XMLID_4_" cx="46.0809" cy="81.8135" r="158.0456" gradientUnits="userSpaceOnUse">
			<stop  offset="0.2182" style="stop-color:#0000B3"/>
			<stop  offset="0.287" style="stop-color:#0018BC"/>
			<stop  offset="0.4327" style="stop-color:#0056D3"/>
			<stop  offset="0.6417" style="stop-color:#00B8F8"/>
			<stop  offset="0.6829" style="stop-color:#00CCFF"/>
			<stop  offset="0.7095" style="stop-color:#26D4FF"/>
			<stop  offset="0.7536" style="stop-color:#5FDFFF"/>
			<stop  offset="0.798" style="stop-color:#90E9FF"/>
			<stop  offset="0.8415" style="stop-color:#B8F1FF"/>
			<stop  offset="0.884" style="stop-color:#D7F7FF"/>
			<stop  offset="0.9252" style="stop-color:#EDFBFF"/>
			<stop  offset="0.9646" style="stop-color:#FAFEFF"/>
			<stop  offset="1" style="stop-color:#FFFFFF"/>
		</radialGradient>
		<path id="XMLID_1369_" class="st2" d="M21.8,43.8l-9.6-17.9c-0.3-0.5-0.1-1.1,0.4-1.4c0.5-0.3,1.1-0.1,1.4,0.4c0,0,0,0.1,0,0.1
			L21.8,43.8z"/>
		<radialGradient id="XMLID_5_" cx="46.0809" cy="81.8133" r="158.0452" gradientUnits="userSpaceOnUse">
			<stop  offset="0.2182" style="stop-color:#0000B3"/>
			<stop  offset="0.287" style="stop-color:#0018BC"/>
			<stop  offset="0.4327" style="stop-color:#0056D3"/>
			<stop  offset="0.6417" style="stop-color:#00B8F8"/>
			<stop  offset="0.6829" style="stop-color:#00CCFF"/>
			<stop  offset="0.7095" style="stop-color:#26D4FF"/>
			<stop  offset="0.7536" style="stop-color:#5FDFFF"/>
			<stop  offset="0.798" style="stop-color:#90E9FF"/>
			<stop  offset="0.8415" style="stop-color:#B8F1FF"/>
			<stop  offset="0.884" style="stop-color:#D7F7FF"/>
			<stop  offset="0.9252" style="stop-color:#EDFBFF"/>
			<stop  offset="0.9646" style="stop-color:#FAFEFF"/>
			<stop  offset="1" style="stop-color:#FFFFFF"/>
		</radialGradient>
		<path id="XMLID_1370_" class="st3" d="M28.7,43.5l6.8-18.6c0.2-0.5,0.8-0.8,1.3-0.6c0.5,0.2,0.8,0.8,0.6,1.3c0,0,0,0.1,0,0.1
			L28.7,43.5z"/>
		<radialGradient id="XMLID_6_" cx="46.0809" cy="81.8135" r="158.0456" gradientUnits="userSpaceOnUse">
			<stop  offset="0.2182" style="stop-color:#0000B3"/>
			<stop  offset="0.287" style="stop-color:#0018BC"/>
			<stop  offset="0.4327" style="stop-color:#0056D3"/>
			<stop  offset="0.6417" style="stop-color:#00B8F8"/>
			<stop  offset="0.6829" style="stop-color:#00CCFF"/>
			<stop  offset="0.7095" style="stop-color:#26D4FF"/>
			<stop  offset="0.7536" style="stop-color:#5FDFFF"/>
			<stop  offset="0.798" style="stop-color:#90E9FF"/>
			<stop  offset="0.8415" style="stop-color:#B8F1FF"/>
			<stop  offset="0.884" style="stop-color:#D7F7FF"/>
			<stop  offset="0.9252" style="stop-color:#EDFBFF"/>
			<stop  offset="0.9646" style="stop-color:#FAFEFF"/>
			<stop  offset="1" style="stop-color:#FFFFFF"/>
		</radialGradient>
		<path id="XMLID_1371_" class="st4" d="M13.8,25.1c0,0,0.2-0.2,0.7-0.4c0.5-0.2,1.3,0,2,0.7c0.3,0.3,0.7,0.8,0.9,1.3
			c0.1,0.3,0.3,0.5,0.3,0.9c0,0.2,0.1,0.3,0,0.5c-0.1,0.2-0.3,0.4-0.6,0.3c-0.4,0-0.7-0.3-1-0.6c-0.2-0.3-0.4-0.7-0.5-1.1
			c-0.1-0.9,0.4-1.6,1-2.2c0.3-0.3,0.7-0.6,1.1-0.7c0.4-0.2,1-0.2,1.5,0.1c0.5,0.3,0.8,0.7,1,1.1c0.2,0.5,0.3,0.9,0.4,1.4
			c0,0.2,0.1,0.5,0.1,0.8c0,0.3,0,0.6-0.3,0.9c-0.1,0.2-0.4,0.3-0.7,0.2c-0.2,0-0.4-0.1-0.5-0.2c-0.3-0.2-0.4-0.5-0.5-0.8
			c-0.2-1.2,0.4-2.2,1.2-3c0.4-0.4,0.9-0.7,1.6-0.8c0.7-0.1,1.4,0.4,1.7,0.9c0.4,0.5,0.5,1,0.7,1.6c0.1,0.3,0.1,0.5,0.2,0.8
			c0,0.3,0.1,0.6-0.1,1c-0.1,0.1-0.2,0.3-0.4,0.4c-0.2,0.1-0.4,0-0.5,0c-0.2-0.1-0.4-0.2-0.5-0.4c-0.2-0.3-0.4-0.5-0.4-0.8
			C22,26.3,22,25.6,22.2,25c0.2-0.6,0.8-1.1,1.2-1.4c0.5-0.3,1.1-0.6,1.8-0.5c0.4,0.1,0.7,0.3,1,0.5c0.2,0.3,0.4,0.5,0.5,0.8
			c0.2,0.6,0.4,1.1,0.4,1.6c0,0.3,0.1,0.5,0.1,0.9c0,0.2-0.1,0.4-0.2,0.6C27,27.8,26.7,28,26.4,28c-0.6,0-0.9-0.4-1.1-0.7
			c-0.2-0.3-0.2-0.7-0.2-1c0.1-1.2,0.8-2.3,1.9-2.9c0.5-0.3,1.2-0.4,1.9-0.1c0.7,0.3,0.9,1,1,1.6c0.1,0.6,0.1,1.1,0,1.6
			c0,0.3-0.1,0.5-0.3,0.8c-0.1,0.1-0.2,0.3-0.3,0.4c-0.1,0.1-0.4,0.3-0.7,0.2c-0.5-0.2-0.6-0.6-0.7-0.9c-0.1-0.3-0.1-0.6,0-0.8
			c0.1-0.6,0.3-1,0.6-1.5c0.3-0.4,0.6-0.8,1.1-1c0.4-0.3,1-0.4,1.5-0.3c0.5,0.1,0.9,0.5,1.2,0.8c0.3,0.4,0.4,0.8,0.6,1.2
			c0.1,0.4,0.3,0.8,0.3,1.2c0,0.4,0.1,0.9-0.4,1.3c-0.2,0.2-0.6,0.1-0.8,0c-0.2-0.1-0.3-0.3-0.4-0.5c-0.1-0.4-0.1-0.8,0-1.1
			c0.1-0.7,0.4-1.3,1-1.6c0.5-0.3,1.1-0.3,1.6-0.1c0.9,0.3,1.5,0.7,2,0.9c0.2,0.1,0.4,0.2,0.5,0.3c0.2,0.1,0,0.1,0,0.1
			c0,0,0.1,0.1,0,0c-0.1-0.1-0.3-0.1-0.5-0.2c-0.5-0.2-1.1-0.6-2-0.8c-0.4-0.1-1-0.1-1.4,0.2c-0.4,0.3-0.7,0.9-0.7,1.4
			c0,0.3-0.1,0.6,0.1,0.9c0.1,0.3,0.4,0.4,0.5,0.3c0.1-0.1,0.2-0.5,0.1-0.8c0-0.3-0.2-0.7-0.3-1C32,24.9,31.6,24.2,31,24
			c-0.7-0.1-1.4,0.4-1.8,1.1c-0.2,0.3-0.4,0.7-0.4,1.1c0,0.2,0,0.4,0,0.6c0,0.2,0.2,0.3,0.1,0.2c-0.1,0,0,0,0.1-0.2
			c0.1-0.2,0.1-0.4,0.2-0.6c0.1-0.4,0-0.9,0-1.3c-0.1-0.4-0.3-0.8-0.5-0.9c-0.3-0.1-0.7-0.1-1.1,0.1c-0.8,0.4-1.3,1.3-1.4,2.1
			c0,0.2,0,0.4,0.1,0.5c0.1,0.1,0.2,0.2,0.2,0.2c-0.1,0,0,0.1,0-0.1c0-0.1-0.1-0.4-0.1-0.7c-0.1-0.5-0.2-1-0.4-1.4
			c-0.2-0.4-0.4-0.7-0.7-0.8c-0.3-0.1-0.8,0.1-1.2,0.4c-0.4,0.3-0.7,0.5-0.9,0.9c-0.2,0.4-0.2,0.8,0,1.2c0.1,0.2,0.2,0.4,0.3,0.5
			c0.1,0.1,0.1,0.1,0.1,0.1s-0.1,0-0.2,0c-0.1,0-0.1,0.1-0.1,0.1c0,0,0-0.3,0-0.5c0-0.2-0.1-0.5-0.2-0.7c-0.1-0.5-0.3-1-0.5-1.3
			c-0.2-0.3-0.5-0.5-0.9-0.5c-0.4,0-0.7,0.2-1.1,0.5c-0.6,0.6-1.1,1.5-1,2.2c0,0.2,0.1,0.3,0.2,0.4c0,0,0.1,0.1,0.1,0.1c0,0,0,0,0,0
			c0,0,0.1-0.2,0.1-0.4c0-0.2,0-0.4,0-0.6c-0.2-0.8-0.4-1.7-1-2.1c-0.6-0.3-1.4,0-1.9,0.5c-0.5,0.5-1,1.1-0.9,1.8
			c0.1,0.6,0.5,1.2,1,1.3c0.2,0,0.3-0.2,0.2-0.5c0-0.3-0.1-0.5-0.3-0.8c-0.2-0.5-0.5-0.9-0.8-1.3c-0.6-0.7-1.4-0.9-1.9-0.7
			C14,24.9,13.8,25.1,13.8,25.1z"/>
		<radialGradient id="XMLID_7_" cx="46.0809" cy="81.8135" r="158.0458" gradientUnits="userSpaceOnUse">
			<stop  offset="0.2182" style="stop-color:#0000B3"/>
			<stop  offset="0.287" style="stop-color:#0018BC"/>
			<stop  offset="0.4327" style="stop-color:#0056D3"/>
			<stop  offset="0.6417" style="stop-color:#00B8F8"/>
			<stop  offset="0.6829" style="stop-color:#00CCFF"/>
			<stop  offset="0.7095" style="stop-color:#26D4FF"/>
			<stop  offset="0.7536" style="stop-color:#5FDFFF"/>
			<stop  offset="0.798" style="stop-color:#90E9FF"/>
			<stop  offset="0.8415" style="stop-color:#B8F1FF"/>
			<stop  offset="0.884" style="stop-color:#D7F7FF"/>
			<stop  offset="0.9252" style="stop-color:#EDFBFF"/>
			<stop  offset="0.9646" style="stop-color:#FAFEFF"/>
			<stop  offset="1" style="stop-color:#FFFFFF"/>
		</radialGradient>
		<path id="XMLID_1372_" class="st5" d="M13.5,69c0,0,0-0.1,0.1-0.3c0.1-0.3,0.3-0.7,0.6-1.1c0.4-0.4,0.9-0.6,1.4-0.8
			c0.5-0.2,1.1-0.3,1.7-0.4c2.4-0.3,5.4-0.2,8.4,0c3,0.1,6,0.3,8.3,0.3c1.1,0,2.1-0.1,2.6-0.4c0.3-0.2,0.4-0.4,0.4-0.6
			c0-0.2,0-0.3,0-0.3c0,0,0,0.1,0,0.3c0,0.2-0.1,0.4-0.4,0.7c-0.6,0.4-1.5,0.6-2.7,0.7c-2.3,0.2-5.3,0.3-8.3,0.4
			c-1.5,0.1-3,0.1-4.4,0.2c-1.4,0.1-2.7,0.3-3.7,0.5c-0.5,0.1-1,0.3-1.3,0.4c-0.4,0.1-0.6,0.3-0.6,0.4c-0.1,0.1-0.1,0.2-0.1,0.2
			c0,0.2,0,0.2,0,0.2l0,0c-0.1,0.5-0.6,0.9-1.2,0.8C13.7,70.2,13.4,69.7,13.5,69C13.5,69.1,13.5,69,13.5,69z"/>
		<radialGradient id="XMLID_8_" cx="46.0809" cy="81.8134" r="158.0452" gradientUnits="userSpaceOnUse">
			<stop  offset="0.2182" style="stop-color:#0000B3"/>
			<stop  offset="0.287" style="stop-color:#0018BC"/>
			<stop  offset="0.4327" style="stop-color:#0056D3"/>
			<stop  offset="0.6417" style="stop-color:#00B8F8"/>
			<stop  offset="0.6829" style="stop-color:#00CCFF"/>
			<stop  offset="0.7095" style="stop-color:#26D4FF"/>
			<stop  offset="0.7536" style="stop-color:#5FDFFF"/>
			<stop  offset="0.798" style="stop-color:#90E9FF"/>
			<stop  offset="0.8415" style="stop-color:#B8F1FF"/>
			<stop  offset="0.884" style="stop-color:#D7F7FF"/>
			<stop  offset="0.9252" style="stop-color:#EDFBFF"/>
			<stop  offset="0.9646" style="stop-color:#FAFEFF"/>
			<stop  offset="1" style="stop-color:#FFFFFF"/>
		</radialGradient>
		<path id="XMLID_1373_" class="st6" d="M13.5,72.2c0,0,0-0.1,0.1-0.3c0.1-0.3,0.3-0.7,0.6-1.1c0.4-0.4,0.9-0.6,1.4-0.8
			c0.5-0.2,1.1-0.3,1.7-0.4c2.4-0.3,5.4-0.2,8.4,0c3,0.1,6,0.3,8.3,0.3c1.1,0,2.1-0.1,2.6-0.4c0.3-0.2,0.4-0.4,0.4-0.6
			c0-0.2,0-0.3,0-0.3c0,0,0,0.1,0,0.3c0,0.2-0.1,0.4-0.4,0.7c-0.6,0.4-1.5,0.6-2.7,0.7c-2.3,0.2-5.3,0.3-8.3,0.4
			c-1.5,0.1-3,0.1-4.4,0.2c-1.4,0.1-2.7,0.3-3.7,0.5c-0.5,0.1-1,0.3-1.3,0.4c-0.4,0.1-0.6,0.3-0.6,0.4c-0.1,0.1-0.1,0.2-0.1,0.2
			c0,0.2,0,0.2,0,0.2l0,0c-0.1,0.5-0.6,0.9-1.2,0.8C13.7,73.3,13.4,72.8,13.5,72.2C13.5,72.2,13.5,72.2,13.5,72.2z"/>
		<radialGradient id="XMLID_9_" cx="46.0809" cy="81.8134" r="158.045" gradientUnits="userSpaceOnUse">
			<stop  offset="0.2182" style="stop-color:#0000B3"/>
			<stop  offset="0.287" style="stop-color:#0018BC"/>
			<stop  offset="0.4327" style="stop-color:#0056D3"/>
			<stop  offset="0.6417" style="stop-color:#00B8F8"/>
			<stop  offset="0.6829" style="stop-color:#00CCFF"/>
			<stop  offset="0.7095" style="stop-color:#26D4FF"/>
			<stop  offset="0.7536" style="stop-color:#5FDFFF"/>
			<stop  offset="0.798" style="stop-color:#90E9FF"/>
			<stop  offset="0.8415" style="stop-color:#B8F1FF"/>
			<stop  offset="0.884" style="stop-color:#D7F7FF"/>
			<stop  offset="0.9252" style="stop-color:#EDFBFF"/>
			<stop  offset="0.9646" style="stop-color:#FAFEFF"/>
			<stop  offset="1" style="stop-color:#FFFFFF"/>
		</radialGradient>
		<path id="XMLID_1374_" class="st7" d="M13.5,75.3c0,0,0-0.1,0.1-0.3c0.1-0.3,0.3-0.7,0.6-1.1c0.4-0.4,0.9-0.6,1.4-0.8
			c0.5-0.2,1.1-0.3,1.7-0.4c2.4-0.3,5.4-0.2,8.4,0c3,0.1,6,0.3,8.3,0.3c1.1,0,2.1-0.1,2.6-0.4c0.3-0.2,0.4-0.4,0.4-0.6
			c0-0.2,0-0.3,0-0.3c0,0,0,0.1,0,0.3c0,0.2-0.1,0.4-0.4,0.7c-0.6,0.4-1.5,0.6-2.7,0.7c-2.3,0.2-5.3,0.3-8.3,0.4
			c-1.5,0.1-3,0.1-4.4,0.2c-1.4,0.1-2.7,0.3-3.7,0.5c-0.5,0.1-1,0.3-1.3,0.4c-0.4,0.1-0.6,0.3-0.6,0.4c-0.1,0.1-0.1,0.2-0.1,0.2
			c0,0.2,0,0.2,0,0.2l0,0c-0.1,0.5-0.6,0.9-1.2,0.8C13.7,76.5,13.4,76,13.5,75.3C13.5,75.4,13.5,75.4,13.5,75.3z"/>
		<radialGradient id="XMLID_10_" cx="46.0809" cy="81.8134" r="158.0456" gradientUnits="userSpaceOnUse">
			<stop  offset="0.2182" style="stop-color:#0000B3"/>
			<stop  offset="0.287" style="stop-color:#0018BC"/>
			<stop  offset="0.4327" style="stop-color:#0056D3"/>
			<stop  offset="0.6417" style="stop-color:#00B8F8"/>
			<stop  offset="0.6829" style="stop-color:#00CCFF"/>
			<stop  offset="0.7095" style="stop-color:#26D4FF"/>
			<stop  offset="0.7536" style="stop-color:#5FDFFF"/>
			<stop  offset="0.798" style="stop-color:#90E9FF"/>
			<stop  offset="0.8415" style="stop-color:#B8F1FF"/>
			<stop  offset="0.884" style="stop-color:#D7F7FF"/>
			<stop  offset="0.9252" style="stop-color:#EDFBFF"/>
			<stop  offset="0.9646" style="stop-color:#FAFEFF"/>
			<stop  offset="1" style="stop-color:#FFFFFF"/>
		</radialGradient>
		<path id="XMLID_1375_" class="st8" d="M13.5,78.5c0,0,0-0.1,0.1-0.3c0.1-0.3,0.3-0.7,0.6-1.1c0.4-0.4,0.9-0.6,1.4-0.8
			c0.5-0.2,1.1-0.3,1.7-0.4c2.4-0.3,5.4-0.2,8.4,0c3,0.1,6,0.3,8.3,0.3c1.1,0,2.1-0.1,2.6-0.4c0.3-0.2,0.4-0.4,0.4-0.6
			c0-0.2,0-0.3,0-0.3c0,0,0,0.1,0,0.3c0,0.2-0.1,0.4-0.4,0.7c-0.6,0.4-1.5,0.6-2.7,0.7c-2.3,0.2-5.3,0.3-8.3,0.4
			c-1.5,0.1-3,0.1-4.4,0.2c-1.4,0.1-2.7,0.3-3.7,0.5c-0.5,0.1-1,0.3-1.3,0.4c-0.4,0.1-0.6,0.3-0.6,0.4c-0.1,0.1-0.1,0.2-0.1,0.2
			c0,0.2,0,0.2,0,0.2l0,0c-0.1,0.5-0.6,0.9-1.2,0.8C13.7,79.6,13.4,79.1,13.5,78.5C13.5,78.6,13.5,78.5,13.5,78.5z"/>
		<radialGradient id="XMLID_11_" cx="46.0809" cy="81.8134" r="158.0453" gradientUnits="userSpaceOnUse">
			<stop  offset="0.2182" style="stop-color:#0000B3"/>
			<stop  offset="0.287" style="stop-color:#0018BC"/>
			<stop  offset="0.4327" style="stop-color:#0056D3"/>
			<stop  offset="0.6417" style="stop-color:#00B8F8"/>
			<stop  offset="0.6829" style="stop-color:#00CCFF"/>
			<stop  offset="0.7095" style="stop-color:#26D4FF"/>
			<stop  offset="0.7536" style="stop-color:#5FDFFF"/>
			<stop  offset="0.798" style="stop-color:#90E9FF"/>
			<stop  offset="0.8415" style="stop-color:#B8F1FF"/>
			<stop  offset="0.884" style="stop-color:#D7F7FF"/>
			<stop  offset="0.9252" style="stop-color:#EDFBFF"/>
			<stop  offset="0.9646" style="stop-color:#FAFEFF"/>
			<stop  offset="1" style="stop-color:#FFFFFF"/>
		</radialGradient>
		<path id="XMLID_1376_" class="st9" d="M15.3,79.3c0,0,0.2,0.3,0.7,0.7c0.5,0.4,1.2,0.7,2.3,0.8c0.5,0,1,0,1.7,0
			c0.6,0,1.3-0.1,2-0.1c1.4-0.1,2.8-0.1,4.3-0.1c1.5,0,2.9,0.1,4.3,0.2c0.3,0,0.7,0,1,0.1c0.2,0,0.3,0,0.5,0c0.2,0,0.3,0,0.5,0
			c0.6,0,1.1,0,1.5-0.2c0.4-0.1,0.8-0.4,1-0.7c0.2-0.3,0.4-0.6,0.5-0.9c0.2-0.6,0.3-1,0.3-1s0,0.1,0,0.3c0,0.2,0.1,0.4,0,0.8
			c0,0.3,0,0.8-0.2,1.2c-0.2,0.5-0.6,1-1.2,1.3c-0.6,0.3-1.2,0.6-1.9,0.6c-0.2,0-0.3,0-0.5,0.1c-0.2,0-0.3,0-0.5,0
			c-0.3,0-0.7,0-1,0.1c-1.4,0.1-2.8,0.1-4.3,0.1c-1.5,0-2.9-0.1-4.3-0.2c-0.7,0-1.4-0.1-2-0.2c-0.6,0-1.3-0.1-1.9-0.3
			c-0.6-0.2-1.1-0.4-1.5-0.7c-0.4-0.3-0.7-0.7-0.8-0.9c-0.2-0.3-0.3-0.6-0.3-0.7C15.3,79.4,15.3,79.3,15.3,79.3z"/>
		<radialGradient id="XMLID_12_" cx="46.0809" cy="81.8134" r="158.0459" gradientUnits="userSpaceOnUse">
			<stop  offset="0.2182" style="stop-color:#0000B3"/>
			<stop  offset="0.287" style="stop-color:#0018BC"/>
			<stop  offset="0.4327" style="stop-color:#0056D3"/>
			<stop  offset="0.6417" style="stop-color:#00B8F8"/>
			<stop  offset="0.6829" style="stop-color:#00CCFF"/>
			<stop  offset="0.7095" style="stop-color:#26D4FF"/>
			<stop  offset="0.7536" style="stop-color:#5FDFFF"/>
			<stop  offset="0.798" style="stop-color:#90E9FF"/>
			<stop  offset="0.8415" style="stop-color:#B8F1FF"/>
			<stop  offset="0.884" style="stop-color:#D7F7FF"/>
			<stop  offset="0.9252" style="stop-color:#EDFBFF"/>
			<stop  offset="0.9646" style="stop-color:#FAFEFF"/>
			<stop  offset="1" style="stop-color:#FFFFFF"/>
		</radialGradient>
		<path id="XMLID_1377_" class="st10" d="M31,82.3c0,0,0,0.2-0.1,0.6c-0.1,0.4-0.5,1-1.2,1.3c-0.3,0.2-0.8,0.3-1.1,0.3
			c-0.4,0.1-0.7,0.1-1.1,0.1c-0.8,0.1-1.6,0.1-2.4,0.1c-0.8,0-1.7,0-2.4-0.1c-0.2,0-0.4,0-0.6-0.1c-0.3,0-0.3,0-0.6-0.1
			c-0.5-0.1-0.9-0.3-1.2-0.7c-0.3-0.3-0.4-0.7-0.5-1c0-0.3,0-0.5,0-0.7c0.1-0.4,0.1-0.6,0.1-0.6s0.1,0.2,0.2,0.5
			c0.1,0.3,0.4,0.8,0.8,0.9c0.2,0.1,0.4,0.1,0.6,0.1c0.1,0,0.4,0,0.5,0c0.2,0,0.4,0,0.6-0.1c0.8-0.1,1.6-0.1,2.4-0.1
			c0.8,0,1.7,0,2.4,0.1c0.4,0,0.8,0.1,1.1,0.1c0.3,0.1,0.6,0.1,0.8,0.1c0.5,0,0.9-0.2,1.2-0.4C30.8,82.5,31,82.3,31,82.3z"/>
	</g>
</g>
</svg>
